<svg width="24" height="24" viewBox="0 0 24 24" fill="none" xmlns="http://www.w3.org/2000/svg">
<g clip-path="url(#clip0_424_1113)">
<path d="M9 20.25C9 20.5467 8.91203 20.8367 8.7472 21.0834C8.58238 21.33 8.34811 21.5223 8.07402 21.6358C7.79994 21.7494 7.49834 21.7791 7.20736 21.7212C6.91639 21.6633 6.64912 21.5204 6.43934 21.3107C6.22956 21.1009 6.0867 20.8336 6.02882 20.5426C5.97094 20.2517 6.00065 19.9501 6.11418 19.676C6.22771 19.4019 6.41997 19.1676 6.66664 19.0028C6.91332 18.838 7.20333 18.75 7.5 18.75C7.89782 18.75 8.27935 18.908 8.56066 19.1893C8.84196 19.4706 9 19.8522 9 20.25ZM17.25 18.75C16.9533 18.75 16.6633 18.838 16.4166 19.0028C16.17 19.1676 15.9777 19.4019 15.8642 19.676C15.7506 19.9501 15.7209 20.2517 15.7788 20.5426C15.8367 20.8336 15.9796 21.1009 16.1893 21.3107C16.3991 21.5204 16.6664 21.6633 16.9574 21.7212C17.2483 21.7791 17.5499 21.7494 17.824 21.6358C18.0981 21.5223 18.3324 21.33 18.4972 21.0834C18.662 20.8367 18.75 20.5467 18.75 20.25C18.75 19.8522 18.592 19.4706 18.3107 19.1893C18.0294 18.908 17.6478 18.75 17.25 18.75ZM21.6037 6.30469C21.534 6.21017 21.443 6.13335 21.3382 6.08043C21.2333 6.02751 21.1175 5.99996 21 6H4.53L3.76969 3.3375C3.67895 3.0247 3.48934 2.74969 3.22925 2.55365C2.96916 2.35761 2.65257 2.25108 2.32687 2.25H0.75C0.551088 2.25 0.360322 2.32902 0.21967 2.46967C0.0790176 2.61032 0 2.80109 0 3C0 3.19891 0.0790176 3.38968 0.21967 3.53033C0.360322 3.67098 0.551088 3.75 0.75 3.75H2.32687L5.71875 15.6178C5.85449 16.087 6.13858 16.4997 6.52848 16.7939C6.91837 17.0882 7.3931 17.2482 7.88156 17.25H16.8919C17.3734 17.2517 17.8427 17.0981 18.2301 16.812C18.6175 16.5259 18.9024 16.1226 19.0425 15.6619L21.7172 6.97031C21.7516 6.85822 21.7593 6.73961 21.7396 6.62401C21.7199 6.50841 21.6734 6.39904 21.6037 6.30469Z" fill="white"/>
</g>
<defs>
<clipPath id="clip0_424_1113">
<rect width="24" height="24" fill="white"/>
</clipPath>
</defs>
</svg>
