<svg width="35" height="35" viewBox="0 0 35 35" fill="none" xmlns="http://www.w3.org/2000/svg">
<g clip-path="url(#clip0_180_2064)">
<path d="M17.606 10.3457C13.6541 10.3457 10.4521 13.5765 10.4521 17.4995C10.4521 21.4515 13.6541 24.6534 17.606 24.6534C21.5291 24.6534 24.7598 21.4515 24.7598 17.4995C24.7598 13.5765 21.5291 10.3457 17.606 10.3457ZM15.5579 21.0765C12.7887 21.0765 11.0868 18.1053 12.4425 15.7111C13.106 14.6149 14.2598 13.9226 15.5579 13.9226C16.4521 13.9226 17.2887 14.2399 17.9521 14.8746L16.9714 15.7976C16.5964 15.4226 16.0771 15.2496 15.5579 15.2496C14.3175 15.2496 13.3368 16.288 13.3368 17.4995C13.3368 18.7399 14.3175 19.7495 15.5579 19.7495C16.481 19.7495 17.4329 19.2015 17.5771 18.2207H15.5579V17.0092H18.9329C18.9618 17.1822 18.9906 17.3842 18.9906 17.5861C18.9906 19.6342 17.606 21.0765 15.5579 21.0765ZM22.1925 18.0188V19.0572H21.1829V18.0188H20.1445V17.0092H21.1829V15.9707H22.1925V17.0092H23.2022V18.0188H22.1925Z" fill="#1159A6"/>
</g>
<rect x="1.10645" y="1" width="33.1357" height="33" rx="16.5" stroke="#1159A6"/>
<defs>
<clipPath id="clip0_180_2064">
<rect width="16" height="16" fill="white" transform="translate(9.60645 9.5)"/>
</clipPath>
</defs>
</svg>
