<svg width="35" height="35" viewBox="0 0 35 35" fill="none" xmlns="http://www.w3.org/2000/svg">
<g clip-path="url(#clip0_180_2060)">
<path d="M25.1262 13.1444C24.7051 13.7695 24.1788 14.3169 23.5706 14.7621C23.5706 14.8066 23.5706 14.8777 23.5884 14.9666L23.6062 15.171C23.6038 16.925 23.081 18.6388 22.104 20.0955C21.5973 20.851 21.0017 21.5355 20.3084 22.1221C19.5648 22.7426 18.7158 23.2243 17.8017 23.5444C16.5033 24.0085 15.1164 24.1712 13.7458 24.0203C12.3752 23.8694 11.0569 23.4087 9.89062 22.6733C10.1928 22.691 10.4328 22.7088 10.6284 22.7088C12.0862 22.7088 13.384 22.2644 14.5217 21.3755C13.869 21.3552 13.2381 21.1356 12.7137 20.7463C12.1894 20.357 11.7967 19.8166 11.5884 19.1977C12.0553 19.3116 12.5447 19.2931 13.0017 19.1444C12.2962 19.0061 11.661 18.6257 11.2062 18.0688C10.7391 17.5182 10.4865 16.8175 10.4951 16.0955V16.0688C10.904 16.2821 11.3662 16.3977 11.8995 16.4244C11.4751 16.1423 11.1277 15.7588 10.8887 15.3088C10.6497 14.8587 10.5267 14.3562 10.5306 13.8466C10.5306 13.3044 10.6551 12.7799 10.9306 12.2555C11.7018 13.2212 12.672 14.0094 13.7751 14.5666C14.9026 15.1379 16.139 15.4621 17.4017 15.5177C17.3312 15.287 17.2924 15.0478 17.2862 14.8066C17.2862 13.9444 17.5884 13.2066 18.2017 12.6021C18.4966 12.3023 18.85 12.0663 19.2399 11.9087C19.6298 11.7512 20.048 11.6756 20.4684 11.6866C20.8915 11.687 21.3101 11.7739 21.6984 11.9421C22.0866 12.1102 22.4364 12.356 22.7262 12.6644C23.4373 12.531 24.0951 12.2733 24.7084 11.9088C24.4852 12.6353 23.9964 13.251 23.3395 13.6333C23.9973 13.5444 24.584 13.3844 25.1262 13.1533V13.1444Z" fill="#1159A6"/>
</g>
<rect x="0.946289" y="1" width="33.1357" height="33" rx="16.5" stroke="#1159A6"/>
<defs>
<clipPath id="clip0_180_2060">
<rect width="16" height="16" fill="white" transform="translate(9.44629 9.5)"/>
</clipPath>
</defs>
</svg>
