<svg width="36" height="35" viewBox="0 0 36 35" fill="none" xmlns="http://www.w3.org/2000/svg">
<path d="M22.4444 10H13.5556C11.5919 10 10 11.5919 10 13.5556V22.4444C10 24.4082 11.5919 26 13.5556 26H22.4444C24.4082 26 26 24.4082 26 22.4444V13.5556C26 11.5919 24.4082 10 22.4444 10Z" stroke="#1159A6" stroke-width="1.77778" stroke-linejoin="round"/>
<path d="M17.9999 21.5554C19.9636 21.5554 21.5554 19.9636 21.5554 17.9999C21.5554 16.0362 19.9636 14.4443 17.9999 14.4443C16.0362 14.4443 14.4443 16.0362 14.4443 17.9999C14.4443 19.9636 16.0362 21.5554 17.9999 21.5554Z" stroke="#1159A6" stroke-width="1.77778" stroke-linejoin="round"/>
<path d="M22.8889 14.0004C23.3798 14.0004 23.7778 13.6025 23.7778 13.1115C23.7778 12.6206 23.3798 12.2227 22.8889 12.2227C22.398 12.2227 22 12.6206 22 13.1115C22 13.6025 22.398 14.0004 22.8889 14.0004Z" fill="#1159A6"/>
<rect x="1.42578" y="1" width="33.1357" height="33" rx="16.5" stroke="#1159A6"/>
</svg>
