<svg width="35" height="35" viewBox="0 0 35 35" fill="none" xmlns="http://www.w3.org/2000/svg">
<g clip-path="url(#clip0_180_2056)">
<path d="M23.8831 10.042C24.1231 10.042 24.3275 10.1309 24.4964 10.2909C24.6653 10.4687 24.7453 10.6642 24.7453 10.9131V24.6375C24.7453 24.8775 24.6564 25.082 24.4964 25.2509C24.4155 25.3331 24.3184 25.3976 24.2114 25.4404C24.1043 25.4833 23.9895 25.5035 23.8742 25.4998H19.972V19.5442H21.972L22.2475 17.1887H19.972V15.6775C19.972 15.322 20.0609 15.0375 20.2209 14.8509C20.3809 14.6731 20.6653 14.5664 21.1098 14.5664H22.3275V12.4775C21.7942 12.4242 21.1987 12.3887 20.5409 12.3887C19.6431 12.3887 18.9142 12.6553 18.3631 13.1887C17.812 13.722 17.5364 14.4687 17.5364 15.4375V17.1887H15.5453V19.5442H17.5364V25.4998H10.1587C9.90976 25.4998 9.71421 25.4109 9.53643 25.2509C9.45425 25.17 9.38971 25.0729 9.34687 24.9658C9.30404 24.8587 9.28384 24.7439 9.28754 24.6287V10.9131C9.28754 10.6731 9.37643 10.4687 9.53643 10.2998C9.61735 10.2176 9.71441 10.153 9.8215 10.1102C9.92858 10.0674 10.0434 10.0472 10.1587 10.0509H23.8831V10.042Z" fill="#1159A6"/>
</g>
<rect x="0.787109" y="1" width="33.1357" height="33" rx="16.5" stroke="#1159A6"/>
<defs>
<clipPath id="clip0_180_2056">
<rect width="16" height="16" fill="white" transform="translate(9.28711 9.5)"/>
</clipPath>
</defs>
</svg>
