<svg width="24" height="24" viewBox="0 0 24 24" fill="none" xmlns="http://www.w3.org/2000/svg">
<g clip-path="url(#clip0_100_193)">
<path d="M17 3H7C4.79086 3 3 4.79086 3 7V17C3 19.2092 4.79086 21 7 21H17C19.2092 21 21 19.2092 21 17V7C21 4.79086 19.2092 3 17 3Z" stroke="white" stroke-width="2" stroke-linejoin="round"/>
<path d="M12 16C14.2092 16 16 14.2092 16 12C16 9.79085 14.2092 8 12 8C9.79085 8 8 9.79085 8 12C8 14.2092 9.79085 16 12 16Z" stroke="white" stroke-width="2" stroke-linejoin="round"/>
<path d="M17.5 7.5C18.0523 7.5 18.5 7.0523 18.5 6.5C18.5 5.9477 18.0523 5.5 17.5 5.5C16.9477 5.5 16.5 5.9477 16.5 6.5C16.5 7.0523 16.9477 7.5 17.5 7.5Z" fill="white"/>
</g>
<defs>
<clipPath id="clip0_100_193">
<rect width="24" height="24" fill="white"/>
</clipPath>
</defs>
</svg>
