<svg class="svg-icon" style="width: 1em; height: 1em;vertical-align: middle;fill: currentColor;overflow: hidden;" viewBox="0 0 1024 1024" version="1.1" xmlns="http://www.w3.org/2000/svg"><path d="M725.333333 384A213.333333 213.333333 0 0 0 298.666667 384a42.666667 42.666667 0 0 0 85.333333 0 128 128 0 1 1 128 128 42.666667 42.666667 0 0 0-42.666667 42.666667v85.333333a42.666667 42.666667 0 0 0 85.333334 0v-46.933333A213.333333 213.333333 0 0 0 725.333333 384z"  /><path d="M512 810.666667m-42.666667 0a42.666667 42.666667 0 1 0 85.333334 0 42.666667 42.666667 0 1 0-85.333334 0Z"  /></svg>