<svg width="24" height="24" viewBox="0 0 24 24" fill="none" xmlns="http://www.w3.org/2000/svg">
<path d="M11.9999 2C6.47724 2 2 6.47713 2 11.9998C2 17.5228 6.47724 21.9995 11.9999 21.9995C17.5233 21.9995 22 17.5228 22 11.9998C22 6.47749 17.5233 2.00048 11.9998 2.00048L11.9999 2ZM16.5858 16.4226C16.4068 16.7164 16.0223 16.8095 15.7285 16.6292C13.3806 15.1951 10.4249 14.8703 6.94403 15.6656C6.6086 15.742 6.27425 15.5318 6.19782 15.1963C6.12105 14.8607 6.33037 14.5264 6.66663 14.4499C10.4759 13.5793 13.7434 13.9544 16.3792 15.5652C16.673 15.7455 16.7662 16.1289 16.5858 16.4226ZM17.8098 13.6994C17.5842 14.0666 17.1041 14.1824 16.7375 13.9568C14.0495 12.3042 9.95215 11.8257 6.77279 12.7908C6.36046 12.9154 5.92496 12.683 5.79981 12.2714C5.67563 11.859 5.90813 11.4244 6.31974 11.299C9.95142 10.1971 14.4663 10.7308 17.5531 12.6277C17.9198 12.8534 18.0355 13.3333 17.8098 13.6994ZM17.9149 10.8641C14.692 8.94979 9.37455 8.77378 6.29742 9.7077C5.80328 9.85756 5.28073 9.57863 5.13099 9.08449C4.98124 8.59012 5.25996 8.06793 5.75444 7.91772C9.28678 6.84539 15.1589 7.05258 18.8695 9.25538C19.3149 9.51916 19.4606 10.0932 19.1967 10.537C18.934 10.9815 18.3585 11.128 17.9154 10.8641H17.9149Z" fill="white"/>
</svg>
