<svg width="24" height="24" viewBox="0 0 24 24" fill="none" xmlns="http://www.w3.org/2000/svg">
<g clip-path="url(#clip0_100_180)">
<path d="M5.5317 5.2072C8.3033 5.06905 10.4591 5 11.9989 5C13.5389 5 15.6954 5.0691 18.4684 5.20725C19.9695 5.28205 21.1835 6.45595 21.3087 7.9536C21.4355 9.4706 21.4989 10.8067 21.4989 11.9619C21.4989 13.1313 21.434 14.486 21.304 16.0261C21.1792 17.5052 19.9916 18.6706 18.5104 18.7675C16.1397 18.9225 13.9692 19 11.9989 19C10.0289 19 7.8592 18.9225 5.4898 18.7675C4.00914 18.6707 2.82173 17.506 2.69632 16.0275C2.56471 14.4759 2.4989 13.1207 2.4989 11.9619C2.4989 10.817 2.56314 9.4805 2.6916 7.9522H2.69161C2.81745 6.45515 4.03125 5.282 5.5317 5.2072Z" fill="#1159A6" stroke="#1159A6" stroke-width="2" stroke-linejoin="round"/>
<path d="M10.5 9.80458V14.203C10.5 14.4397 10.6919 14.6316 10.9285 14.6316C11.0126 14.6316 11.0948 14.6069 11.1649 14.5605L14.4637 12.3803C14.6612 12.2498 14.7154 11.9839 14.5849 11.7864C14.5537 11.7392 14.5135 11.6986 14.4665 11.6671L11.1677 9.44893C10.9713 9.31688 10.705 9.36903 10.5729 9.56548C10.5254 9.63618 10.5 9.71943 10.5 9.80458Z" fill="#D9D9D9"/>
</g>
<defs>
<clipPath id="clip0_100_180">
<rect width="24" height="24" fill="white"/>
</clipPath>
</defs>
</svg>
